<svg width="24" height="24" viewBox="0 0 24 24" fill="none" xmlns="http://www.w3.org/2000/svg">
<path d="M18.561 13.158C17.459 13.158 16.426 12.691 15.487 11.931L15.715 10.855L15.723 10.813C15.93 9.67 16.572 7.753 18.562 7.753C19.2787 7.75353 19.9659 8.03848 20.4727 8.54528C20.9795 9.05208 21.2645 9.73929 21.265 10.456C21.2637 11.1726 20.9783 11.8594 20.4714 12.3659C19.9646 12.8723 19.2776 13.1572 18.561 13.158ZM18.561 5.018C16.022 5.018 14.051 6.667 13.251 9.384C12.031 7.55 11.103 5.348 10.564 3.492H7.828V10.604C7.82721 11.2794 7.55864 11.9268 7.08119 12.4045C6.60373 12.8821 5.95635 13.1509 5.281 13.152C4.60591 13.1507 3.95889 12.8817 3.48182 12.4041C3.00474 11.9264 2.73653 11.2791 2.736 10.604V3.492H0V10.604C0 13.518 2.37 15.907 5.281 15.907C8.194 15.907 10.564 13.518 10.564 10.604V9.414C11.093 10.521 11.746 11.643 12.538 12.635L10.865 20.508H13.662L14.875 14.798C15.938 15.477 17.16 15.907 18.561 15.907C21.561 15.907 24 13.455 24 10.457C24 7.457 21.561 5.018 18.561 5.018V5.018Z" fill="black"/>
</svg>
